<svg xmlns="http://www.w3.org/2000/svg" xmlns:xlink="http://www.w3.org/1999/xlink" width="80" zoomAndPan="magnify" viewBox="0 0 20 277.499997" height="1000" preserveAspectRatio="xMidYMid meet" version="1.0"><defs><g/><clipPath id="01ea780111"><path d="M 5.746094 7.71875 L 24 7.71875 L 24 24.9375 L 5.746094 24.9375 Z M 5.746094 7.71875 " clip-rule="nonzero"/></clipPath></defs><g fill="#524d4e" fill-opacity="1"><g transform="translate(20.307805, 269.219092)"><g><path d="M -7.234375 -0.40625 C -9.316406 -0.40625 -11.082031 -1.113281 -12.53125 -2.53125 C -13.976562 -3.957031 -14.703125 -5.675781 -14.703125 -7.6875 C -14.703125 -9.695312 -13.976562 -11.40625 -12.53125 -12.8125 C -11.09375 -14.226562 -9.328125 -14.9375 -7.234375 -14.9375 C -5.117188 -14.9375 -3.335938 -14.242188 -1.890625 -12.859375 C -0.453125 -11.472656 0.265625 -9.75 0.265625 -7.6875 C 0.265625 -5.570312 -0.445312 -3.828125 -1.875 -2.453125 C -3.3125 -1.085938 -5.097656 -0.40625 -7.234375 -0.40625 Z M -7.234375 -3.953125 C -6.472656 -3.953125 -5.78125 -4.066406 -5.15625 -4.296875 C -4.53125 -4.535156 -4 -4.945312 -3.5625 -5.53125 C -3.132812 -6.113281 -2.921875 -6.832031 -2.921875 -7.6875 C -2.921875 -8.90625 -3.335938 -9.828125 -4.171875 -10.453125 C -5.015625 -11.078125 -6.035156 -11.390625 -7.234375 -11.390625 C -8.410156 -11.390625 -9.421875 -11.070312 -10.265625 -10.4375 C -11.109375 -9.800781 -11.53125 -8.882812 -11.53125 -7.6875 C -11.53125 -6.488281 -11.109375 -5.566406 -10.265625 -4.921875 C -9.421875 -4.273438 -8.410156 -3.953125 -7.234375 -3.953125 Z M -7.234375 -3.953125 "/></g></g></g><g fill="#524d4e" fill-opacity="1"><g transform="translate(20.307805, 253.874664)"><g><path d="M -6.703125 -5.828125 C -6.703125 -5.242188 -6.484375 -4.738281 -6.046875 -4.3125 C -5.617188 -3.894531 -5.101562 -3.6875 -4.5 -3.6875 C -3.875 -3.6875 -3.347656 -3.894531 -2.921875 -4.3125 C -2.492188 -4.738281 -2.28125 -5.242188 -2.28125 -5.828125 C -2.28125 -6.109375 -2.3125 -6.375 -2.375 -6.625 C -2.445312 -6.875 -2.519531 -7.054688 -2.59375 -7.171875 L -2.6875 -7.328125 L -0.546875 -8.375 C -0.484375 -8.300781 -0.40625 -8.191406 -0.3125 -8.046875 C -0.226562 -7.898438 -0.113281 -7.566406 0.03125 -7.046875 C 0.1875 -6.523438 0.265625 -5.96875 0.265625 -5.375 C 0.265625 -4.050781 -0.195312 -2.890625 -1.125 -1.890625 C -2.050781 -0.898438 -3.164062 -0.40625 -4.46875 -0.40625 C -5.769531 -0.40625 -6.890625 -0.898438 -7.828125 -1.890625 C -8.765625 -2.890625 -9.234375 -4.050781 -9.234375 -5.375 C -9.234375 -5.96875 -9.160156 -6.515625 -9.015625 -7.015625 C -8.878906 -7.515625 -8.742188 -7.867188 -8.609375 -8.078125 L -8.40625 -8.375 L -6.28125 -7.328125 C -6.5625 -6.941406 -6.703125 -6.441406 -6.703125 -5.828125 Z M -6.703125 -5.828125 "/></g></g></g><g fill="#524d4e" fill-opacity="1"><g transform="translate(20.307805, 245.283882)"><g><path d="M -4.0625 -10.125 L -4.0625 -3.625 C -3.425781 -3.625 -2.957031 -3.828125 -2.65625 -4.234375 C -2.351562 -4.640625 -2.203125 -5.082031 -2.203125 -5.5625 C -2.203125 -6.0625 -2.269531 -6.457031 -2.40625 -6.75 C -2.539062 -7.039062 -2.804688 -7.375 -3.203125 -7.75 L -2.078125 -10 C -0.515625 -9.0625 0.265625 -7.507812 0.265625 -5.34375 C 0.265625 -3.988281 -0.195312 -2.828125 -1.125 -1.859375 C -2.050781 -0.890625 -3.164062 -0.40625 -4.46875 -0.40625 C -5.78125 -0.40625 -6.898438 -0.890625 -7.828125 -1.859375 C -8.765625 -2.828125 -9.234375 -3.988281 -9.234375 -5.34375 C -9.234375 -6.757812 -8.820312 -7.914062 -8 -8.8125 C -7.175781 -9.707031 -6.003906 -10.15625 -4.484375 -10.15625 C -4.273438 -10.15625 -4.132812 -10.144531 -4.0625 -10.125 Z M -5.78125 -3.703125 L -5.78125 -7.125 C -6.238281 -7.050781 -6.59375 -6.863281 -6.84375 -6.5625 C -7.101562 -6.269531 -7.234375 -5.890625 -7.234375 -5.421875 C -7.234375 -4.910156 -7.097656 -4.503906 -6.828125 -4.203125 C -6.554688 -3.898438 -6.207031 -3.734375 -5.78125 -3.703125 Z M -5.78125 -3.703125 "/></g></g></g><g fill="#524d4e" fill-opacity="1"><g transform="translate(20.307805, 234.733495)"><g><path d="M -1.109375 -1.65625 C -2.023438 -0.820312 -3.144531 -0.40625 -4.46875 -0.40625 C -5.800781 -0.40625 -6.925781 -0.820312 -7.84375 -1.65625 C -8.769531 -2.5 -9.234375 -3.566406 -9.234375 -4.859375 C -9.234375 -6.054688 -8.863281 -7.039062 -8.125 -7.8125 L -8.984375 -7.8125 L -8.984375 -10.90625 L 0 -10.90625 L 0 -7.84375 L -1.015625 -7.84375 L -1.015625 -7.8125 C -0.160156 -7.039062 0.265625 -6.054688 0.265625 -4.859375 C 0.265625 -3.566406 -0.191406 -2.5 -1.109375 -1.65625 Z M -6 -4.296875 C -5.601562 -3.890625 -5.09375 -3.6875 -4.46875 -3.6875 C -3.851562 -3.6875 -3.347656 -3.878906 -2.953125 -4.265625 C -2.566406 -4.648438 -2.375 -5.160156 -2.375 -5.796875 C -2.375 -6.398438 -2.570312 -6.894531 -2.96875 -7.28125 C -3.363281 -7.675781 -3.867188 -7.875 -4.484375 -7.875 C -5.097656 -7.875 -5.601562 -7.671875 -6 -7.265625 C -6.394531 -6.867188 -6.59375 -6.378906 -6.59375 -5.796875 C -6.59375 -5.203125 -6.394531 -4.703125 -6 -4.296875 Z M -6 -4.296875 "/></g></g></g><g fill="#524d4e" fill-opacity="1"><g transform="translate(20.307805, 222.783385)"><g><path d="M 0 -1.046875 L -8.984375 -1.046875 L -8.984375 -4.140625 L -8.03125 -4.140625 L -8.03125 -4.1875 C -8.832031 -4.988281 -9.234375 -5.84375 -9.234375 -6.75 C -9.234375 -7.195312 -9.175781 -7.640625 -9.0625 -8.078125 C -8.945312 -8.515625 -8.765625 -8.929688 -8.515625 -9.328125 C -8.273438 -9.734375 -7.929688 -10.0625 -7.484375 -10.3125 C -7.035156 -10.5625 -6.515625 -10.6875 -5.921875 -10.6875 L 0 -10.6875 L 0 -7.59375 L -5.078125 -7.59375 C -5.546875 -7.59375 -5.953125 -7.441406 -6.296875 -7.140625 C -6.648438 -6.847656 -6.828125 -6.460938 -6.828125 -5.984375 C -6.828125 -5.515625 -6.644531 -5.085938 -6.28125 -4.703125 C -5.914062 -4.328125 -5.515625 -4.140625 -5.078125 -4.140625 L 0 -4.140625 Z M 0 -1.046875 "/></g></g></g><g fill="#524d4e" fill-opacity="1"><g transform="translate(20.307805, 211.218205)"><g><path d="M -13.984375 -1.34375 C -14.347656 -1.707031 -14.53125 -2.140625 -14.53125 -2.640625 C -14.53125 -3.140625 -14.347656 -3.570312 -13.984375 -3.9375 C -13.617188 -4.300781 -13.1875 -4.484375 -12.6875 -4.484375 C -12.1875 -4.484375 -11.753906 -4.300781 -11.390625 -3.9375 C -11.023438 -3.570312 -10.84375 -3.140625 -10.84375 -2.640625 C -10.84375 -2.140625 -11.023438 -1.707031 -11.390625 -1.34375 C -11.753906 -0.988281 -12.1875 -0.8125 -12.6875 -0.8125 C -13.1875 -0.8125 -13.617188 -0.988281 -13.984375 -1.34375 Z M -8.984375 -1.046875 L 0 -1.046875 L 0 -4.140625 L -8.984375 -4.140625 Z M -8.984375 -1.046875 "/></g></g></g><g fill="#524d4e" fill-opacity="1"><g transform="translate(20.307805, 205.934264)"><g><path d="M -6.703125 -5.828125 C -6.703125 -5.242188 -6.484375 -4.738281 -6.046875 -4.3125 C -5.617188 -3.894531 -5.101562 -3.6875 -4.5 -3.6875 C -3.875 -3.6875 -3.347656 -3.894531 -2.921875 -4.3125 C -2.492188 -4.738281 -2.28125 -5.242188 -2.28125 -5.828125 C -2.28125 -6.109375 -2.3125 -6.375 -2.375 -6.625 C -2.445312 -6.875 -2.519531 -7.054688 -2.59375 -7.171875 L -2.6875 -7.328125 L -0.546875 -8.375 C -0.484375 -8.300781 -0.40625 -8.191406 -0.3125 -8.046875 C -0.226562 -7.898438 -0.113281 -7.566406 0.03125 -7.046875 C 0.1875 -6.523438 0.265625 -5.96875 0.265625 -5.375 C 0.265625 -4.050781 -0.195312 -2.890625 -1.125 -1.890625 C -2.050781 -0.898438 -3.164062 -0.40625 -4.46875 -0.40625 C -5.769531 -0.40625 -6.890625 -0.898438 -7.828125 -1.890625 C -8.765625 -2.890625 -9.234375 -4.050781 -9.234375 -5.375 C -9.234375 -5.96875 -9.160156 -6.515625 -9.015625 -7.015625 C -8.878906 -7.515625 -8.742188 -7.867188 -8.609375 -8.078125 L -8.40625 -8.375 L -6.28125 -7.328125 C -6.5625 -6.941406 -6.703125 -6.441406 -6.703125 -5.828125 Z M -6.703125 -5.828125 "/></g></g></g><g fill="#524d4e" fill-opacity="1"><g transform="translate(20.307805, 197.343482)"><g/></g></g><g fill="#524d4e" fill-opacity="1"><g transform="translate(20.307805, 192.566937)"><g><path d="M -14.4375 -7.328125 L -4.078125 -7.328125 C -2.660156 -7.328125 -1.582031 -6.9375 -0.84375 -6.15625 C -0.101562 -5.382812 0.265625 -4.273438 0.265625 -2.828125 C 0.265625 -2.441406 0.21875 -2.0625 0.125 -1.6875 C 0.03125 -1.320312 -0.0820312 -1.007812 -0.21875 -0.75 C -0.351562 -0.5 -0.488281 -0.269531 -0.625 -0.0625 C -0.769531 0.144531 -0.890625 0.296875 -0.984375 0.390625 L -1.125 0.546875 L -3.875 -0.5 C -3.21875 -1.195312 -2.890625 -1.820312 -2.890625 -2.375 C -2.890625 -2.875 -3.054688 -3.273438 -3.390625 -3.578125 C -3.722656 -3.890625 -4.234375 -4.046875 -4.921875 -4.046875 L -14.4375 -4.046875 Z M -14.4375 -7.328125 "/></g></g></g><g fill="#524d4e" fill-opacity="1"><g transform="translate(20.307805, 184.361084)"><g><path d="M -8.984375 -3.96875 L -4.703125 -3.96875 C -3.816406 -3.96875 -3.1875 -4.101562 -2.8125 -4.375 C -2.4375 -4.644531 -2.25 -5.097656 -2.25 -5.734375 C -2.25 -6.378906 -2.4375 -6.832031 -2.8125 -7.09375 C -3.1875 -7.363281 -3.816406 -7.5 -4.703125 -7.5 L -8.984375 -7.5 L -8.984375 -10.609375 L -3.953125 -10.609375 C -2.460938 -10.609375 -1.382812 -10.21875 -0.71875 -9.4375 C -0.0625 -8.664062 0.265625 -7.429688 0.265625 -5.734375 C 0.265625 -4.046875 -0.0625 -2.8125 -0.71875 -2.03125 C -1.382812 -1.257812 -2.460938 -0.875 -3.953125 -0.875 L -8.984375 -0.875 Z M -8.984375 -3.96875 "/></g></g></g><g fill="#524d4e" fill-opacity="1"><g transform="translate(20.307805, 172.88338)"><g><path d="M -1.109375 -1.65625 C -2.023438 -0.820312 -3.144531 -0.40625 -4.46875 -0.40625 C -5.800781 -0.40625 -6.925781 -0.820312 -7.84375 -1.65625 C -8.769531 -2.5 -9.234375 -3.566406 -9.234375 -4.859375 C -9.234375 -6.054688 -8.863281 -7.039062 -8.125 -7.8125 L -15.046875 -7.8125 L -15.046875 -10.90625 L 0 -10.90625 L 0 -7.84375 L -1.015625 -7.84375 L -1.015625 -7.8125 C -0.160156 -7.039062 0.265625 -6.054688 0.265625 -4.859375 C 0.265625 -3.566406 -0.191406 -2.5 -1.109375 -1.65625 Z M -6 -4.296875 C -5.601562 -3.890625 -5.09375 -3.6875 -4.46875 -3.6875 C -3.851562 -3.6875 -3.347656 -3.878906 -2.953125 -4.265625 C -2.566406 -4.648438 -2.375 -5.160156 -2.375 -5.796875 C -2.375 -6.398438 -2.570312 -6.894531 -2.96875 -7.28125 C -3.363281 -7.675781 -3.867188 -7.875 -4.484375 -7.875 C -5.097656 -7.875 -5.601562 -7.671875 -6 -7.265625 C -6.394531 -6.867188 -6.59375 -6.378906 -6.59375 -5.796875 C -6.59375 -5.203125 -6.394531 -4.703125 -6 -4.296875 Z M -6 -4.296875 "/></g></g></g><g fill="#524d4e" fill-opacity="1"><g transform="translate(20.307805, 160.933271)"><g><path d="M 2.203125 -0.640625 L 0.96875 -3.1875 C 1.738281 -3.65625 2.125 -4.46875 2.125 -5.625 C 2.125 -6.15625 1.945312 -6.648438 1.59375 -7.109375 C 1.25 -7.578125 0.722656 -7.8125 0.015625 -7.8125 L -0.640625 -7.8125 C -0.0351562 -7.257812 0.265625 -6.273438 0.265625 -4.859375 C 0.265625 -3.566406 -0.191406 -2.5 -1.109375 -1.65625 C -2.023438 -0.820312 -3.144531 -0.40625 -4.46875 -0.40625 C -5.800781 -0.40625 -6.925781 -0.820312 -7.84375 -1.65625 C -8.769531 -2.5 -9.234375 -3.566406 -9.234375 -4.859375 C -9.234375 -6.015625 -8.878906 -6.976562 -8.171875 -7.75 L -8.171875 -7.8125 L -8.984375 -7.8125 L -8.984375 -10.90625 L 0.25 -10.90625 C 1.707031 -10.90625 2.832031 -10.421875 3.625 -9.453125 C 4.414062 -8.484375 4.8125 -7.207031 4.8125 -5.625 C 4.8125 -3.050781 3.941406 -1.390625 2.203125 -0.640625 Z M -6 -4.296875 C -5.601562 -3.890625 -5.09375 -3.6875 -4.46875 -3.6875 C -3.851562 -3.6875 -3.347656 -3.878906 -2.953125 -4.265625 C -2.566406 -4.648438 -2.375 -5.160156 -2.375 -5.796875 C -2.375 -6.398438 -2.570312 -6.894531 -2.96875 -7.28125 C -3.363281 -7.675781 -3.867188 -7.875 -4.484375 -7.875 C -5.097656 -7.875 -5.601562 -7.671875 -6 -7.265625 C -6.394531 -6.867188 -6.59375 -6.378906 -6.59375 -5.796875 C -6.59375 -5.203125 -6.394531 -4.703125 -6 -4.296875 Z M -6 -4.296875 "/></g></g></g><g fill="#524d4e" fill-opacity="1"><g transform="translate(20.307805, 148.983161)"><g><path d="M -4.0625 -10.125 L -4.0625 -3.625 C -3.425781 -3.625 -2.957031 -3.828125 -2.65625 -4.234375 C -2.351562 -4.640625 -2.203125 -5.082031 -2.203125 -5.5625 C -2.203125 -6.0625 -2.269531 -6.457031 -2.40625 -6.75 C -2.539062 -7.039062 -2.804688 -7.375 -3.203125 -7.75 L -2.078125 -10 C -0.515625 -9.0625 0.265625 -7.507812 0.265625 -5.34375 C 0.265625 -3.988281 -0.195312 -2.828125 -1.125 -1.859375 C -2.050781 -0.890625 -3.164062 -0.40625 -4.46875 -0.40625 C -5.78125 -0.40625 -6.898438 -0.890625 -7.828125 -1.859375 C -8.765625 -2.828125 -9.234375 -3.988281 -9.234375 -5.34375 C -9.234375 -6.757812 -8.820312 -7.914062 -8 -8.8125 C -7.175781 -9.707031 -6.003906 -10.15625 -4.484375 -10.15625 C -4.273438 -10.15625 -4.132812 -10.144531 -4.0625 -10.125 Z M -5.78125 -3.703125 L -5.78125 -7.125 C -6.238281 -7.050781 -6.59375 -6.863281 -6.84375 -6.5625 C -7.101562 -6.269531 -7.234375 -5.890625 -7.234375 -5.421875 C -7.234375 -4.910156 -7.097656 -4.503906 -6.828125 -4.203125 C -6.554688 -3.898438 -6.207031 -3.734375 -5.78125 -3.703125 Z M -5.78125 -3.703125 "/></g></g></g><g fill="#524d4e" fill-opacity="1"><g transform="translate(20.307805, 138.432774)"><g/></g></g><g fill="#524d4e" fill-opacity="1"><g transform="translate(20.307805, 133.656229)"><g><path d="M -14.4375 -8.375 L 0 -14.203125 L 0 -10.671875 L -2.890625 -9.609375 L -2.890625 -4.109375 L 0 -3.046875 L 0 0.484375 L -14.4375 -5.34375 Z M -5.78125 -8.484375 L -9.96875 -6.875 L -9.96875 -6.84375 L -5.78125 -5.234375 Z M -5.78125 -8.484375 "/></g></g></g><g fill="#524d4e" fill-opacity="1"><g transform="translate(20.307805, 119.938974)"><g><path d="M -9.234375 -4.953125 C -9.234375 -5.460938 -9.175781 -5.96875 -9.0625 -6.46875 C -8.945312 -6.976562 -8.832031 -7.351562 -8.71875 -7.59375 L -8.546875 -7.96875 L -6.515625 -6.953125 C -6.878906 -6.242188 -7.0625 -5.578125 -7.0625 -4.953125 C -7.0625 -4.597656 -7.023438 -4.347656 -6.953125 -4.203125 C -6.878906 -4.054688 -6.738281 -3.984375 -6.53125 -3.984375 C -6.476562 -3.984375 -6.425781 -3.988281 -6.375 -4 C -6.332031 -4.019531 -6.289062 -4.046875 -6.25 -4.078125 C -6.207031 -4.109375 -6.171875 -4.140625 -6.140625 -4.171875 C -6.117188 -4.203125 -6.085938 -4.25 -6.046875 -4.3125 C -6.015625 -4.382812 -5.988281 -4.441406 -5.96875 -4.484375 C -5.957031 -4.523438 -5.929688 -4.59375 -5.890625 -4.6875 C -5.859375 -4.78125 -5.832031 -4.847656 -5.8125 -4.890625 C -5.800781 -4.941406 -5.773438 -5.019531 -5.734375 -5.125 C -5.703125 -5.238281 -5.679688 -5.328125 -5.671875 -5.390625 C -5.566406 -5.753906 -5.445312 -6.066406 -5.3125 -6.328125 C -5.1875 -6.597656 -5.015625 -6.878906 -4.796875 -7.171875 C -4.578125 -7.472656 -4.296875 -7.707031 -3.953125 -7.875 C -3.617188 -8.039062 -3.234375 -8.125 -2.796875 -8.125 C -0.753906 -8.125 0.265625 -6.707031 0.265625 -3.875 C 0.265625 -3.226562 0.164062 -2.613281 -0.03125 -2.03125 C -0.226562 -1.457031 -0.425781 -1.039062 -0.625 -0.78125 L -0.9375 -0.40625 L -3.0625 -1.65625 C -2.976562 -1.75 -2.878906 -1.867188 -2.765625 -2.015625 C -2.660156 -2.171875 -2.507812 -2.445312 -2.3125 -2.84375 C -2.125 -3.25 -2.03125 -3.597656 -2.03125 -3.890625 C -2.03125 -4.523438 -2.242188 -4.84375 -2.671875 -4.84375 C -2.867188 -4.84375 -3.023438 -4.757812 -3.140625 -4.59375 C -3.253906 -4.4375 -3.378906 -4.160156 -3.515625 -3.765625 C -3.660156 -3.378906 -3.789062 -3.078125 -3.90625 -2.859375 C -4.195312 -2.296875 -4.523438 -1.847656 -4.890625 -1.515625 C -5.253906 -1.191406 -5.742188 -1.03125 -6.359375 -1.03125 C -7.265625 -1.03125 -7.96875 -1.382812 -8.46875 -2.09375 C -8.976562 -2.800781 -9.234375 -3.753906 -9.234375 -4.953125 Z M -9.234375 -4.953125 "/></g></g></g><g fill="#524d4e" fill-opacity="1"><g transform="translate(20.307805, 111.330697)"><g><path d="M -9.234375 -4.953125 C -9.234375 -5.460938 -9.175781 -5.96875 -9.0625 -6.46875 C -8.945312 -6.976562 -8.832031 -7.351562 -8.71875 -7.59375 L -8.546875 -7.96875 L -6.515625 -6.953125 C -6.878906 -6.242188 -7.0625 -5.578125 -7.0625 -4.953125 C -7.0625 -4.597656 -7.023438 -4.347656 -6.953125 -4.203125 C -6.878906 -4.054688 -6.738281 -3.984375 -6.53125 -3.984375 C -6.476562 -3.984375 -6.425781 -3.988281 -6.375 -4 C -6.332031 -4.019531 -6.289062 -4.046875 -6.25 -4.078125 C -6.207031 -4.109375 -6.171875 -4.140625 -6.140625 -4.171875 C -6.117188 -4.203125 -6.085938 -4.25 -6.046875 -4.3125 C -6.015625 -4.382812 -5.988281 -4.441406 -5.96875 -4.484375 C -5.957031 -4.523438 -5.929688 -4.59375 -5.890625 -4.6875 C -5.859375 -4.78125 -5.832031 -4.847656 -5.8125 -4.890625 C -5.800781 -4.941406 -5.773438 -5.019531 -5.734375 -5.125 C -5.703125 -5.238281 -5.679688 -5.328125 -5.671875 -5.390625 C -5.566406 -5.753906 -5.445312 -6.066406 -5.3125 -6.328125 C -5.1875 -6.597656 -5.015625 -6.878906 -4.796875 -7.171875 C -4.578125 -7.472656 -4.296875 -7.707031 -3.953125 -7.875 C -3.617188 -8.039062 -3.234375 -8.125 -2.796875 -8.125 C -0.753906 -8.125 0.265625 -6.707031 0.265625 -3.875 C 0.265625 -3.226562 0.164062 -2.613281 -0.03125 -2.03125 C -0.226562 -1.457031 -0.425781 -1.039062 -0.625 -0.78125 L -0.9375 -0.40625 L -3.0625 -1.65625 C -2.976562 -1.75 -2.878906 -1.867188 -2.765625 -2.015625 C -2.660156 -2.171875 -2.507812 -2.445312 -2.3125 -2.84375 C -2.125 -3.25 -2.03125 -3.597656 -2.03125 -3.890625 C -2.03125 -4.523438 -2.242188 -4.84375 -2.671875 -4.84375 C -2.867188 -4.84375 -3.023438 -4.757812 -3.140625 -4.59375 C -3.253906 -4.4375 -3.378906 -4.160156 -3.515625 -3.765625 C -3.660156 -3.378906 -3.789062 -3.078125 -3.90625 -2.859375 C -4.195312 -2.296875 -4.523438 -1.847656 -4.890625 -1.515625 C -5.253906 -1.191406 -5.742188 -1.03125 -6.359375 -1.03125 C -7.265625 -1.03125 -7.96875 -1.382812 -8.46875 -2.09375 C -8.976562 -2.800781 -9.234375 -3.753906 -9.234375 -4.953125 Z M -9.234375 -4.953125 "/></g></g></g><g fill="#524d4e" fill-opacity="1"><g transform="translate(20.307805, 102.722419)"><g><path d="M -1.0625 -1.890625 C -1.945312 -0.898438 -3.082031 -0.40625 -4.46875 -0.40625 C -5.863281 -0.40625 -7.003906 -0.921875 -7.890625 -1.953125 C -8.785156 -2.992188 -9.234375 -4.28125 -9.234375 -5.8125 C -9.234375 -7.3125 -8.785156 -8.578125 -7.890625 -9.609375 C -6.992188 -10.648438 -5.859375 -11.171875 -4.484375 -11.171875 C -3.109375 -11.171875 -1.972656 -10.664062 -1.078125 -9.65625 C -0.179688 -8.644531 0.265625 -7.363281 0.265625 -5.8125 C 0.265625 -4.195312 -0.175781 -2.890625 -1.0625 -1.890625 Z M -6 -4.296875 C -5.601562 -3.890625 -5.09375 -3.6875 -4.46875 -3.6875 C -3.851562 -3.6875 -3.347656 -3.878906 -2.953125 -4.265625 C -2.566406 -4.648438 -2.375 -5.160156 -2.375 -5.796875 C -2.375 -6.398438 -2.570312 -6.894531 -2.96875 -7.28125 C -3.363281 -7.675781 -3.867188 -7.875 -4.484375 -7.875 C -5.097656 -7.875 -5.601562 -7.671875 -6 -7.265625 C -6.394531 -6.867188 -6.59375 -6.378906 -6.59375 -5.796875 C -6.59375 -5.203125 -6.394531 -4.703125 -6 -4.296875 Z M -6 -4.296875 "/></g></g></g><g fill="#524d4e" fill-opacity="1"><g transform="translate(20.307805, 91.157239)"><g><path d="M -6.703125 -5.828125 C -6.703125 -5.242188 -6.484375 -4.738281 -6.046875 -4.3125 C -5.617188 -3.894531 -5.101562 -3.6875 -4.5 -3.6875 C -3.875 -3.6875 -3.347656 -3.894531 -2.921875 -4.3125 C -2.492188 -4.738281 -2.28125 -5.242188 -2.28125 -5.828125 C -2.28125 -6.109375 -2.3125 -6.375 -2.375 -6.625 C -2.445312 -6.875 -2.519531 -7.054688 -2.59375 -7.171875 L -2.6875 -7.328125 L -0.546875 -8.375 C -0.484375 -8.300781 -0.40625 -8.191406 -0.3125 -8.046875 C -0.226562 -7.898438 -0.113281 -7.566406 0.03125 -7.046875 C 0.1875 -6.523438 0.265625 -5.96875 0.265625 -5.375 C 0.265625 -4.050781 -0.195312 -2.890625 -1.125 -1.890625 C -2.050781 -0.898438 -3.164062 -0.40625 -4.46875 -0.40625 C -5.769531 -0.40625 -6.890625 -0.898438 -7.828125 -1.890625 C -8.765625 -2.890625 -9.234375 -4.050781 -9.234375 -5.375 C -9.234375 -5.96875 -9.160156 -6.515625 -9.015625 -7.015625 C -8.878906 -7.515625 -8.742188 -7.867188 -8.609375 -8.078125 L -8.40625 -8.375 L -6.28125 -7.328125 C -6.5625 -6.941406 -6.703125 -6.441406 -6.703125 -5.828125 Z M -6.703125 -5.828125 "/></g></g></g><g fill="#524d4e" fill-opacity="1"><g transform="translate(20.307805, 82.566456)"><g><path d="M -13.984375 -1.34375 C -14.347656 -1.707031 -14.53125 -2.140625 -14.53125 -2.640625 C -14.53125 -3.140625 -14.347656 -3.570312 -13.984375 -3.9375 C -13.617188 -4.300781 -13.1875 -4.484375 -12.6875 -4.484375 C -12.1875 -4.484375 -11.753906 -4.300781 -11.390625 -3.9375 C -11.023438 -3.570312 -10.84375 -3.140625 -10.84375 -2.640625 C -10.84375 -2.140625 -11.023438 -1.707031 -11.390625 -1.34375 C -11.753906 -0.988281 -12.1875 -0.8125 -12.6875 -0.8125 C -13.1875 -0.8125 -13.617188 -0.988281 -13.984375 -1.34375 Z M -8.984375 -1.046875 L 0 -1.046875 L 0 -4.140625 L -8.984375 -4.140625 Z M -8.984375 -1.046875 "/></g></g></g><g fill="#524d4e" fill-opacity="1"><g transform="translate(20.307805, 77.282515)"><g><path d="M -1.109375 -1.65625 C -2.023438 -0.820312 -3.144531 -0.40625 -4.46875 -0.40625 C -5.800781 -0.40625 -6.925781 -0.820312 -7.84375 -1.65625 C -8.769531 -2.5 -9.234375 -3.566406 -9.234375 -4.859375 C -9.234375 -6.054688 -8.863281 -7.039062 -8.125 -7.8125 L -8.984375 -7.8125 L -8.984375 -10.90625 L 0 -10.90625 L 0 -7.84375 L -1.015625 -7.84375 L -1.015625 -7.8125 C -0.160156 -7.039062 0.265625 -6.054688 0.265625 -4.859375 C 0.265625 -3.566406 -0.191406 -2.5 -1.109375 -1.65625 Z M -6 -4.296875 C -5.601562 -3.890625 -5.09375 -3.6875 -4.46875 -3.6875 C -3.851562 -3.6875 -3.347656 -3.878906 -2.953125 -4.265625 C -2.566406 -4.648438 -2.375 -5.160156 -2.375 -5.796875 C -2.375 -6.398438 -2.570312 -6.894531 -2.96875 -7.28125 C -3.363281 -7.675781 -3.867188 -7.875 -4.484375 -7.875 C -5.097656 -7.875 -5.601562 -7.671875 -6 -7.265625 C -6.394531 -6.867188 -6.59375 -6.378906 -6.59375 -5.796875 C -6.59375 -5.203125 -6.394531 -4.703125 -6 -4.296875 Z M -6 -4.296875 "/></g></g></g><g fill="#524d4e" fill-opacity="1"><g transform="translate(20.307805, 65.332394)"><g><path d="M -8.984375 -1.578125 L -12.3125 -1.578125 L -12.3125 -4.671875 L -8.984375 -4.671875 L -8.984375 -6.5625 L -6.609375 -6.5625 L -6.609375 -4.671875 L -3.765625 -4.671875 C -2.929688 -4.671875 -2.515625 -4.90625 -2.515625 -5.375 C -2.515625 -5.488281 -2.535156 -5.609375 -2.578125 -5.734375 C -2.628906 -5.867188 -2.679688 -5.96875 -2.734375 -6.03125 L -2.796875 -6.140625 L -0.296875 -6.90625 C 0.078125 -6.25 0.265625 -5.492188 0.265625 -4.640625 C 0.265625 -4.054688 0.164062 -3.550781 -0.03125 -3.125 C -0.238281 -2.707031 -0.515625 -2.390625 -0.859375 -2.171875 C -1.203125 -1.960938 -1.5625 -1.8125 -1.9375 -1.71875 C -2.320312 -1.625 -2.734375 -1.578125 -3.171875 -1.578125 L -6.609375 -1.578125 L -6.609375 -0.28125 L -8.984375 -0.28125 Z M -8.984375 -1.578125 "/></g></g></g><g fill="#524d4e" fill-opacity="1"><g transform="translate(20.307805, 58.421292)"><g><path d="M -13.984375 -1.34375 C -14.347656 -1.707031 -14.53125 -2.140625 -14.53125 -2.640625 C -14.53125 -3.140625 -14.347656 -3.570312 -13.984375 -3.9375 C -13.617188 -4.300781 -13.1875 -4.484375 -12.6875 -4.484375 C -12.1875 -4.484375 -11.753906 -4.300781 -11.390625 -3.9375 C -11.023438 -3.570312 -10.84375 -3.140625 -10.84375 -2.640625 C -10.84375 -2.140625 -11.023438 -1.707031 -11.390625 -1.34375 C -11.753906 -0.988281 -12.1875 -0.8125 -12.6875 -0.8125 C -13.1875 -0.8125 -13.617188 -0.988281 -13.984375 -1.34375 Z M -8.984375 -1.046875 L 0 -1.046875 L 0 -4.140625 L -8.984375 -4.140625 Z M -8.984375 -1.046875 "/></g></g></g><g fill="#524d4e" fill-opacity="1"><g transform="translate(20.307805, 53.137363)"><g><path d="M -1.0625 -1.890625 C -1.945312 -0.898438 -3.082031 -0.40625 -4.46875 -0.40625 C -5.863281 -0.40625 -7.003906 -0.921875 -7.890625 -1.953125 C -8.785156 -2.992188 -9.234375 -4.28125 -9.234375 -5.8125 C -9.234375 -7.3125 -8.785156 -8.578125 -7.890625 -9.609375 C -6.992188 -10.648438 -5.859375 -11.171875 -4.484375 -11.171875 C -3.109375 -11.171875 -1.972656 -10.664062 -1.078125 -9.65625 C -0.179688 -8.644531 0.265625 -7.363281 0.265625 -5.8125 C 0.265625 -4.195312 -0.175781 -2.890625 -1.0625 -1.890625 Z M -6 -4.296875 C -5.601562 -3.890625 -5.09375 -3.6875 -4.46875 -3.6875 C -3.851562 -3.6875 -3.347656 -3.878906 -2.953125 -4.265625 C -2.566406 -4.648438 -2.375 -5.160156 -2.375 -5.796875 C -2.375 -6.398438 -2.570312 -6.894531 -2.96875 -7.28125 C -3.363281 -7.675781 -3.867188 -7.875 -4.484375 -7.875 C -5.097656 -7.875 -5.601562 -7.671875 -6 -7.265625 C -6.394531 -6.867188 -6.59375 -6.378906 -6.59375 -5.796875 C -6.59375 -5.203125 -6.394531 -4.703125 -6 -4.296875 Z M -6 -4.296875 "/></g></g></g><g fill="#524d4e" fill-opacity="1"><g transform="translate(20.307805, 41.572183)"><g><path d="M 0 -1.046875 L -8.984375 -1.046875 L -8.984375 -4.140625 L -8.03125 -4.140625 L -8.03125 -4.1875 C -8.832031 -4.988281 -9.234375 -5.84375 -9.234375 -6.75 C -9.234375 -7.195312 -9.175781 -7.640625 -9.0625 -8.078125 C -8.945312 -8.515625 -8.765625 -8.929688 -8.515625 -9.328125 C -8.273438 -9.734375 -7.929688 -10.0625 -7.484375 -10.3125 C -7.035156 -10.5625 -6.515625 -10.6875 -5.921875 -10.6875 L 0 -10.6875 L 0 -7.59375 L -5.078125 -7.59375 C -5.546875 -7.59375 -5.953125 -7.441406 -6.296875 -7.140625 C -6.648438 -6.847656 -6.828125 -6.460938 -6.828125 -5.984375 C -6.828125 -5.515625 -6.644531 -5.085938 -6.28125 -4.703125 C -5.914062 -4.328125 -5.515625 -4.140625 -5.078125 -4.140625 L 0 -4.140625 Z M 0 -1.046875 "/></g></g></g><g clip-path="url(#01ea780111)"><path fill="#524d4e" d="M 17.1875 8.019531 C 16.652344 8.382812 11.058594 10.898438 10.726562 10.9375 C 10.605469 10.136719 9.949219 9.628906 9.269531 9.628906 C 8.730469 9.625 8.558594 10.144531 8.800781 10.367188 C 8.960938 10.515625 9.222656 10.421875 9.234375 10.269531 C 9.484375 10.269531 9.554688 10.398438 9.742188 10.585938 C 9.921875 10.769531 9.695312 11.410156 9.59375 11.644531 C 9.4375 12.019531 9.21875 12.359375 8.949219 12.808594 C 8.636719 13.335938 8.542969 13.570312 8.453125 13.832031 C 8.175781 14.796875 8.460938 15.21875 8.621094 15.507812 L 8.625 15.503906 L 8.625 15.511719 C 8.765625 15.730469 8.847656 15.828125 8.894531 16.023438 C 8.894531 16.023438 8.863281 16.105469 8.863281 16.105469 C 8.839844 16.164062 8.445312 16.191406 8.273438 16.109375 C 7.957031 15.964844 7.910156 15.484375 7.347656 15.394531 C 6.90625 15.320312 6.585938 15.570312 6.285156 15.894531 C 6.285156 15.894531 6.28125 15.890625 6.28125 15.890625 C 6.285156 15.894531 6.175781 16.003906 6.164062 16.011719 C 6.113281 16.066406 6.042969 16.105469 5.980469 16.148438 C 5.746094 16.308594 5.804688 16.476562 5.800781 16.449219 C 5.828125 16.738281 6.097656 16.785156 6.191406 16.890625 L 6.296875 17.003906 L 6.300781 17 C 6.4375 17.144531 6.644531 17.386719 7.003906 17.46875 C 7.410156 17.566406 7.703125 17.398438 7.960938 17.078125 C 8.136719 16.859375 8.230469 16.667969 8.722656 16.730469 C 8.933594 16.757812 8.917969 16.816406 8.871094 16.941406 C 8.636719 17.554688 7.699219 17.945312 9.023438 20.199219 L 9.027344 20.195312 C 9.078125 20.28125 9.078125 20.285156 9.140625 20.382812 L 9.148438 20.386719 C 9.359375 20.765625 9.613281 21.148438 9.742188 21.660156 C 9.78125 21.808594 9.839844 21.96875 9.808594 22.121094 C 9.746094 22.394531 9.429688 22.625 9.234375 22.605469 C 9.238281 22.605469 9.191406 22.519531 9.183594 22.511719 C 9.011719 22.328125 8.621094 22.488281 8.703125 22.855469 C 8.882812 23.65625 10.609375 23.195312 10.714844 21.941406 C 10.890625 21.960938 14.855469 23.617188 17.132812 24.839844 C 17.234375 24.878906 17.269531 24.933594 17.367188 24.902344 C 17.5 24.855469 17.621094 24.652344 17.667969 24.523438 C 17.667969 24.503906 17.667969 24.503906 17.667969 24.503906 C 18.449219 24.300781 19.160156 23.710938 19.511719 23.183594 C 19.996094 22.457031 19.992188 21.382812 19.910156 20.914062 C 19.761719 20.039062 19.003906 18.828125 17.992188 18.488281 C 17.855469 18.445312 17.851562 18.441406 17.703125 18.386719 C 17.703125 18.160156 17.445312 18.058594 17.402344 18.027344 C 17.25 18.015625 17.148438 18.070312 17.101562 18.222656 C 16.117188 18.664062 16.347656 18.757812 13.933594 19.714844 C 11.175781 20.804688 11.472656 20.488281 10.585938 20.957031 C 10.5625 20.917969 10.542969 20.878906 10.519531 20.84375 C 10.523438 20.847656 10.535156 20.847656 10.539062 20.847656 C 10.445312 20.671875 10.105469 20.371094 9.839844 19.894531 L 9.828125 19.894531 C 9.730469 19.644531 9.722656 19.609375 9.6875 19.542969 C 9.636719 19.214844 9.410156 18.265625 10.714844 17.453125 L 10.726562 17.457031 C 10.863281 17.386719 11.398438 17.175781 11.523438 17.140625 C 11.5625 17.488281 11.894531 17.503906 12.226562 17.523438 L 12.222656 17.511719 C 12.320312 17.511719 12.410156 17.5 12.503906 17.476562 L 12.503906 17.488281 C 12.554688 17.464844 12.535156 17.46875 12.59375 17.457031 L 12.589844 17.445312 C 12.714844 17.382812 12.832031 17.296875 12.941406 17.203125 L 13.035156 17.175781 C 13.234375 17.117188 13.359375 17.359375 13.71875 17.390625 C 14.089844 17.421875 14.238281 17.25 14.433594 17.265625 C 14.695312 17.285156 14.773438 17.394531 15.078125 17.289062 L 15.082031 17.289062 C 15.140625 17.261719 15.207031 17.238281 15.265625 17.214844 C 15.339844 17.183594 15.382812 17.136719 15.472656 17.136719 C 15.539062 17.132812 15.605469 17.164062 15.671875 17.183594 C 16.640625 17.476562 16.96875 16.757812 19.398438 18.070312 L 19.394531 18.070312 C 19.886719 18.328125 20.070312 18.480469 20.742188 18.269531 C 21.351562 18.082031 21.347656 18.296875 21.867188 18.898438 L 21.871094 18.890625 C 21.910156 18.929688 22.980469 19.890625 23.011719 19.917969 C 23.054688 19.957031 23.226562 19.75 23.242188 19.722656 C 23.359375 19.539062 23.351562 19.433594 23.554688 18.878906 C 24.253906 16.929688 24.050781 14.824219 23.292969 13.214844 C 23.21875 13.066406 23.125 12.957031 22.957031 12.964844 C 22.957031 12.964844 22.851562 13.097656 22.839844 13.109375 C 22.832031 13.113281 22.34375 13.550781 22.335938 13.550781 C 21.820312 13.996094 21.90625 13.941406 21.722656 14.140625 L 21.726562 14.144531 C 21.175781 14.839844 21.246094 14.726562 20.40625 14.515625 L 20.414062 14.527344 C 20.042969 14.472656 19.871094 14.570312 19.5625 14.710938 L 19.570312 14.714844 C 19.410156 14.800781 19.371094 14.828125 19.175781 14.921875 C 18.230469 15.371094 17.902344 15.480469 17.367188 15.605469 C 17.367188 15.605469 17.238281 15.621094 17.171875 15.625 L 17.171875 15.628906 C 16.945312 15.640625 16.839844 15.636719 16.644531 15.625 L 16.640625 15.628906 C 16.277344 15.613281 16.085938 15.605469 15.789062 15.664062 L 15.789062 15.660156 C 15.777344 15.664062 15.789062 15.664062 15.714844 15.675781 L 15.714844 15.683594 C 15.597656 15.714844 15.496094 15.75 15.398438 15.726562 C 15.328125 15.710938 15.199219 15.671875 15.15625 15.613281 C 14.96875 15.53125 14.792969 15.527344 14.601562 15.578125 C 14.175781 15.691406 13.953125 15.269531 13.316406 15.628906 C 13.128906 15.734375 13.128906 15.71875 12.941406 15.691406 C 12.921875 15.664062 12.910156 15.648438 12.882812 15.632812 L 12.886719 15.628906 L 12.664062 15.472656 C 12.476562 15.339844 11.613281 15.226562 11.523438 15.726562 L 11.535156 15.738281 L 11.535156 15.742188 C 11.386719 15.695312 10.882812 15.496094 10.835938 15.476562 L 10.832031 15.476562 C 10.042969 15.066406 9.679688 14.460938 9.644531 13.910156 C 9.632812 13.773438 9.628906 13.761719 9.664062 13.476562 L 9.65625 13.476562 L 9.664062 13.472656 C 9.738281 13.164062 9.792969 13.066406 9.945312 12.789062 L 9.953125 12.789062 C 10.058594 12.628906 10.035156 12.664062 10.492188 12.101562 L 10.46875 12.113281 C 10.511719 12.050781 10.546875 11.984375 10.582031 11.917969 C 11.390625 12.394531 11.550781 12.152344 14.359375 13.335938 C 16.609375 14.28125 16.066406 14.1875 17.101562 14.65625 C 17.148438 14.808594 17.25 14.863281 17.390625 14.851562 C 17.4375 14.824219 17.699219 14.722656 17.699219 14.492188 C 18.351562 14.25 18.148438 14.382812 18.476562 14.160156 C 19.128906 13.714844 19.613281 13.027344 19.824219 12.332031 C 20.082031 11.480469 19.925781 10.402344 19.625 9.890625 C 19.214844 9.191406 18.527344 8.605469 17.667969 8.371094 C 17.652344 8.269531 17.492188 7.988281 17.335938 7.96875 C 17.300781 7.964844 17.246094 7.972656 17.1875 8.019531 Z M 13.066406 20.429688 C 14.511719 19.972656 16.90625 18.871094 17.085938 18.746094 C 17.101562 19.007812 17.109375 19.019531 17.089844 19.652344 C 17.019531 21.738281 17.1875 20.261719 17.054688 24.269531 C 16.550781 24.121094 16.15625 23.808594 15.675781 23.582031 C 15.078125 23.300781 14.460938 23.050781 13.859375 22.78125 C 12.761719 22.289062 11.878906 21.867188 10.746094 21.601562 C 10.742188 21.511719 10.738281 21.421875 10.714844 21.308594 C 10.941406 21.121094 12.789062 20.523438 13.066406 20.429688 Z M 9.253906 19.453125 C 9.242188 19.441406 9.230469 19.433594 9.214844 19.425781 C 9.226562 19.425781 9.242188 19.4375 9.253906 19.453125 Z M 9.90625 17.804688 C 9.902344 17.804688 9.902344 17.808594 9.898438 17.808594 C 9.898438 17.804688 9.898438 17.804688 9.898438 17.800781 C 9.898438 17.800781 9.902344 17.800781 9.90625 17.804688 Z M 10.292969 16.824219 C 10.289062 16.828125 10.285156 16.828125 10.28125 16.828125 C 10.28125 16.824219 10.28125 16.824219 10.28125 16.824219 C 10.285156 16.824219 10.289062 16.824219 10.292969 16.824219 Z M 9.71875 14.863281 C 9.714844 14.863281 9.714844 14.863281 9.710938 14.863281 C 9.714844 14.855469 9.714844 14.851562 9.71875 14.847656 Z M 17.105469 10.214844 C 17.148438 11.035156 17.066406 11.863281 17.074219 12.394531 C 17.066406 13.136719 17.128906 13.515625 17.082031 14.132812 C 17.058594 14.105469 17.074219 14.121094 17.046875 14.089844 C 16.910156 14.039062 16.875 14.050781 16.574219 13.890625 C 16.148438 13.648438 14.289062 12.859375 13.363281 12.542969 C 10.820312 11.679688 10.960938 11.765625 10.703125 11.566406 C 10.726562 11.472656 10.738281 11.375 10.746094 11.277344 C 11.992188 10.980469 12.730469 10.589844 15.039062 9.582031 C 16.433594 8.964844 16.476562 8.773438 17.0625 8.605469 C 17.0625 8.605469 17.058594 9.207031 17.105469 10.214844 Z M 17.105469 10.214844 " fill-opacity="1" fill-rule="nonzero"/></g></svg>